<svg width="122" height="15" viewBox="0 0 122 15" fill="none" xmlns="http://www.w3.org/2000/svg">
<path d="M102.905 14.4712H105.635V0L102.905 0V14.4712Z" fill="#124C69"/>
<path d="M0 14.4749H2.73034L2.73034 0.00373129L0 0.00373129L0 14.4749Z" fill="#124C69"/>
<path d="M119.269 10.6984V0L122 0V14.4712H119.115L111.965 3.99894V14.4712H109.235V0L111.965 0L119.269 10.6984Z" fill="#124C69"/>
<path d="M81.4972 0V6.45659L74.9131 6.45659V0L72.1825 0V14.4712H74.9131V9.11109L81.4972 9.11109V14.4712H84.2274V0L81.4972 0Z" fill="#124C69"/>
<path d="M43.8025 0.00207723L55.8119 0.00207723V2.65658L51.1725 2.65658V14.4749L48.4419 14.4749V2.65658L43.8025 2.65658V0.00207723Z" fill="#124C69"/>
<path d="M5.48317 2.65844L5.49294 2.65823C6.57251 2.65823 7.45084 3.51216 7.45084 4.56174C7.45084 5.61136 6.57251 6.46525 5.49294 6.46525L5.48317 6.46504V9.11954L5.49294 9.11979C8.07801 9.11979 10.1812 7.07507 10.1812 4.56174C10.1812 2.04841 8.07801 0.00373129 5.49294 0.00373129L5.48317 0.00394246V2.65844Z" fill="#124C69"/>
<path fill-rule="evenodd" clip-rule="evenodd" d="M41.8835 14.4749H39.1532L36.0833 9.11598H32.9208V14.4712H30.1905V0L36.781 0C39.3665 0 41.4694 2.04468 41.4694 4.55801C41.4694 6.44185 40.2878 8.06239 38.6073 8.75601L41.8835 14.4749ZM32.9208 2.6545V6.46152L36.7716 6.46149L36.781 6.46152C37.8609 6.46152 38.7391 5.60763 38.7391 4.55801C38.7391 3.50843 37.8609 2.6545 36.781 2.6545L32.9208 2.6545Z" fill="#124C69"/>
<path fill-rule="evenodd" clip-rule="evenodd" d="M97.8446 14.4712H100.575L95.2229 0L92.0807 0L86.7289 14.4712H89.4595L90.4586 11.7696L96.8454 11.7696L97.8446 14.4712ZM91.4404 9.11514L93.6518 3.13473L95.8637 9.11514L91.4404 9.11514Z" fill="#124C69"/>
<path fill-rule="evenodd" clip-rule="evenodd" d="M12.4454 7.2356C12.4454 3.23951 15.7775 0 19.8878 0C23.998 0 27.3301 3.23951 27.3301 7.2356C27.3301 11.2317 23.998 14.4712 19.8878 14.4712C15.7775 14.4712 12.4454 11.2317 12.4454 7.2356ZM14.9671 7.2356C14.9671 9.87771 17.1702 12.0195 19.8878 12.0195C22.6054 12.0195 24.8084 9.87771 24.8084 7.2356C24.8084 4.59349 22.6054 2.45164 19.8878 2.45164C17.1702 2.45164 14.9671 4.59349 14.9671 7.2356Z" fill="#124C69"/>
<path d="M62.2607 3.09669C62.9937 2.67801 63.8459 2.43675 64.7556 2.43675C65.6653 2.43675 66.5178 2.67801 67.2509 3.09669L69.0569 1.34075C67.8417 0.500929 66.3568 0.00661836 64.7556 0.00661836C63.1545 0.00661836 61.6699 0.500929 60.4546 1.34075L62.2607 3.09669Z" fill="#124C69"/>
<path d="M64.7556 12.0448C65.6653 12.0448 66.5178 11.8035 67.2509 11.3848L69.0569 13.1408C67.8417 13.9806 66.3568 14.4749 64.7556 14.4749C60.6527 14.4749 57.315 11.2297 57.315 7.24077C57.315 5.68403 57.8232 4.24059 58.6873 3.0591L60.4934 4.81504C60.0626 5.52756 59.8143 6.35629 59.8143 7.24077C59.8143 9.88974 62.0312 12.0448 64.7556 12.0448Z" fill="#124C69"/>
</svg>
